<?xml version="1.0" encoding="utf-8"?>
<!-- Generator: Adobe Illustrator 24.1.2, SVG Export Plug-In . SVG Version: 6.00 Build 0)  -->
<svg version="1.1" id="Layer_1" xmlns="http://www.w3.org/2000/svg" xmlns:xlink="http://www.w3.org/1999/xlink" x="0px" y="0px"
	 width="205px" height="25px" viewBox="0 0 205 25" style="enable-background:new 0 0 205 25;" xml:space="preserve">
<style type="text/css">
	.st0{fill:#FFFFFF;}
	.st1{fill:#00F0FF;}
</style>
<path class="st0" d="M24.9,21.4h-3.4V25H3.6v-3.4H0v-18h3.4V0h18v3.4h3.5V21.4z M17.8,21.4V3.6H7.2v17.8H17.8z M54.9,21.4h-3.4V25
	H33.6v-3.4H30v-18h3.4V0h18v3.4h3.5V21.4z M47.8,21.4V3.6H37.2v17.8H47.8z M84.9,25h-7V14.3h-3.6v3.5h-3.6v-3.5h-3.4V25H60V0h7v3.4
	h3.6v3.7h3.4V3.6h3.6V0h7.2V25z M114.9,14.2h-3.4v3.6H97.1V25H90V0h21.4v3.4h3.5V14.2z M107.7,14.2V3.6H97.1v10.6H107.7z M144.9,25
	h-7V14.3h-10.6V25H120V0h7v10.6h10.7V0h7.2V25z"/>
<path class="st1" d="M174.9,14.3h-3.5v3.6h-3.5v3.6h-3.6V25h-3.6v-3.4H157V18h-3.5v-3.6H150V0h7v10.5h3.6v3.7h3.4v-3.5h3.6V0h7.2
	V14.3z M205,21.4h-3.5V25h-17.9v-3.4H180V18h7v3.4h10.8v-7H187v-3.6h3.5V7h3.6V3.6h-10.6V0H205v3.5h-3.5V7h-3.6v3.6h3.4v3.6h3.8
	V21.4z"/>
</svg>
